<svg width="32" height="30" viewBox="0 0 32 30" fill="none" xmlns="http://www.w3.org/2000/svg">
<g filter="url(#filter0_d_10_89)">
<path d="M16 0.666992C8.65699 0.693992 2.71399 6.65299 2.71399 14C2.71399 19.599 6.16599 24.393 11.057 26.368L11.146 26.4C11.013 25.347 10.919 23.733 11.186 22.573L12.746 15.946C12.746 15.946 12.346 15.146 12.346 13.973C12.346 12.12 13.426 10.746 14.773 10.746C15.906 10.746 16.466 11.599 16.466 12.613C16.466 13.76 15.733 15.466 15.346 17.053C15.026 18.386 16.013 19.466 17.333 19.466C19.706 19.466 21.52 16.973 21.52 13.373C21.52 10.173 19.227 7.95999 15.947 7.95999C15.871 7.95599 15.783 7.95399 15.694 7.95399C12.505 7.95399 9.92099 10.539 9.92099 13.727C9.92099 13.729 9.92099 13.731 9.92099 13.733C9.92099 14.88 10.361 16.106 10.908 16.773C11.015 16.906 11.028 17.026 10.988 17.16L10.615 18.667C10.562 18.907 10.415 18.974 10.175 18.854C8.49499 18.067 7.45499 15.654 7.45499 13.681C7.45499 9.48099 10.522 5.62799 16.282 5.62799C20.895 5.62799 24.509 8.90799 24.509 13.321C24.509 17.921 21.602 21.614 17.576 21.614C16.243 21.614 14.963 20.907 14.536 20.081L13.696 23.241C13.265 24.578 12.704 25.739 12.008 26.804L12.042 26.748C13.212 27.12 14.558 27.335 15.953 27.335C23.317 27.335 29.286 21.365 29.286 14.002C29.286 6.65499 23.344 0.695992 16.004 0.668992H16.001L16 0.666992Z" fill="black"/>
<path d="M15.953 26.835C14.8503 26.835 13.7815 26.6955 12.8154 26.4492C13.3591 25.52 13.8104 24.5158 14.1719 23.3944L14.1759 23.382L14.1792 23.3694L14.774 21.1318C14.9883 21.3105 15.2299 21.4683 15.4861 21.6011C16.0924 21.9155 16.8241 22.114 17.576 22.114C21.9659 22.114 25.009 18.1004 25.009 13.321C25.009 8.59669 21.1346 5.12799 16.282 5.12799C13.2856 5.12799 10.9462 6.13304 9.35476 7.72612C7.76691 9.31556 6.95499 11.4594 6.95499 13.681C6.95499 14.7481 7.23442 15.9203 7.737 16.9343C8.23614 17.9413 8.98295 18.8457 9.95757 19.3043C10.1268 19.3878 10.3913 19.4723 10.6637 19.3544C10.9481 19.2313 11.059 18.9692 11.1016 18.7819L11.4709 17.2899C11.5048 17.1712 11.5233 17.0304 11.4949 16.8759C11.4654 16.715 11.392 16.577 11.2976 16.4596L11.2976 16.4596L11.2946 16.4559C10.8299 15.8893 10.421 14.7794 10.421 13.733V13.733V13.733V13.733V13.7329V13.7329V13.7329V13.7329V13.7329V13.7329V13.7329V13.7329V13.7329V13.7328V13.7328V13.7328V13.7328V13.7328V13.7328V13.7328V13.7328V13.7327V13.7327V13.7327V13.7327V13.7327V13.7327V13.7327V13.7327V13.7327V13.7326V13.7326V13.7326V13.7326V13.7326V13.7326V13.7326V13.7326V13.7325V13.7325V13.7325V13.7325V13.7325V13.7325V13.7325V13.7325V13.7325V13.7324V13.7324V13.7324V13.7324V13.7324V13.7324V13.7324V13.7324V13.7323V13.7323V13.7323V13.7323V13.7323V13.7323V13.7323V13.7323V13.7323V13.7322V13.7322V13.7322V13.7322V13.7322V13.7322V13.7322V13.7322V13.7321V13.7321V13.7321V13.7321V13.7321V13.7321V13.7321V13.7321V13.7321V13.732V13.732V13.732V13.732V13.732V13.732V13.732V13.732V13.7319V13.7319V13.7319V13.7319V13.7319V13.7319V13.7319V13.7319V13.7319V13.7318V13.7318V13.7318V13.7318V13.7318V13.7318V13.7318V13.7318V13.7318V13.7317V13.7317V13.7317V13.7317V13.7317V13.7317V13.7317V13.7317V13.7316V13.7316V13.7316V13.7316V13.7316V13.7316V13.7316V13.7316V13.7316V13.7315V13.7315V13.7315V13.7315V13.7315V13.7315V13.7315V13.7315V13.7314V13.7314V13.7314V13.7314V13.7314V13.7314V13.7314V13.7314V13.7314V13.7313V13.7313V13.7313V13.7313V13.7313V13.7313V13.7313V13.7313V13.7312V13.7312V13.7312V13.7312V13.7312V13.7312V13.7312V13.7312V13.7312V13.7311V13.7311V13.7311V13.7311V13.7311V13.7311V13.7311V13.7311V13.731V13.731V13.731V13.731V13.731V13.731V13.731V13.731V13.731V13.7309V13.7309V13.7309V13.7309V13.7309V13.7309V13.7309V13.7309V13.7308V13.7308V13.7308V13.7308V13.7308V13.7308V13.7308V13.7308V13.7308V13.7307V13.7307V13.7307V13.7307V13.7307V13.7307V13.7307V13.7307V13.7306V13.7306V13.7306V13.7306V13.7306V13.7306V13.7306V13.7306V13.7306V13.7305V13.7305V13.7305V13.7305V13.7305V13.7305V13.7305V13.7305V13.7304V13.7304V13.7304V13.7304V13.7304V13.7304V13.7304V13.7304V13.7304V13.7303V13.7303V13.7303V13.7303V13.7303V13.7303V13.7303V13.7303V13.7303V13.7302V13.7302V13.7302V13.7302V13.7302V13.7302V13.7302V13.7302V13.7301V13.7301V13.7301V13.7301V13.7301V13.7301V13.7301V13.7301V13.7301V13.73V13.73V13.73V13.73V13.73V13.73V13.73V13.73V13.7299V13.7299V13.7299V13.7299V13.7299V13.7299V13.7299V13.7299V13.7299V13.7298V13.7298V13.7298V13.7298V13.7298V13.7298V13.7298V13.7298V13.7297V13.7297V13.7297V13.7297V13.7297V13.7297V13.7297V13.7297V13.7297V13.7296V13.7296V13.7296V13.7296V13.7296V13.7296V13.7296V13.7296V13.7295V13.7295V13.7295V13.7295V13.7295V13.7295V13.7295V13.7295V13.7295V13.7294V13.7294V13.7294V13.7294V13.7294V13.7294V13.7294V13.7294V13.7293V13.7293V13.7293V13.7293V13.7293V13.7293V13.7293V13.7293V13.7293V13.7292V13.7292V13.7292V13.7292V13.7292V13.7292V13.7292V13.7292V13.7291V13.7291V13.7291V13.7291V13.7291V13.7291V13.7291V13.7291V13.7291V13.729V13.729V13.729V13.729V13.729V13.729V13.729V13.729V13.7289V13.7289V13.7289V13.7289V13.7289V13.7289V13.7289V13.7289V13.7289V13.7288V13.7288V13.7288V13.7288V13.7288V13.7288V13.7288V13.7288V13.7288V13.7287V13.7287V13.7287V13.7287V13.7287V13.7287V13.7287V13.7287V13.7286V13.7286V13.7286V13.7286V13.7286V13.7286V13.7286V13.7286V13.7286V13.7285V13.7285V13.7285V13.7285V13.7285V13.7285V13.7285V13.7285V13.7284V13.7284V13.7284V13.7284V13.7284V13.7284V13.7284V13.7284V13.7284V13.7283V13.7283V13.7283V13.7283V13.7283V13.7283V13.7283V13.7283V13.7282V13.7282V13.7282V13.7282V13.7282V13.7282V13.7282V13.7282V13.7282V13.7281V13.7281V13.7281V13.7281V13.7281V13.7281V13.7281V13.7281V13.728V13.728V13.728V13.728V13.728V13.728V13.728V13.728V13.728V13.7279V13.7279V13.7279V13.7279V13.7279V13.7279V13.7279V13.7279V13.7278V13.7278V13.7278V13.7278V13.7278V13.7278V13.7278V13.7278V13.7278V13.7277V13.7277V13.7277V13.7277V13.7277V13.7277V13.7277V13.7277V13.7276V13.7276V13.7276V13.7276V13.7276V13.7276V13.7276V13.7276V13.7276V13.7275V13.7275V13.7275V13.7275V13.7275V13.7275V13.7275V13.7275V13.7274V13.7274V13.7274V13.7274V13.7274V13.7274V13.7274V13.7274V13.7274V13.7273V13.7273V13.7273V13.7273V13.7273V13.7273V13.7273V13.7273V13.7273V13.7272V13.7272V13.7272V13.7272V13.7272V13.7272V13.7272V13.7272V13.7271V13.7271V13.7271V13.7271V13.7271V13.7271V13.7271V13.7271V13.7271V13.727V13.727V13.727V13.727V13.727C10.421 10.8151 12.7812 8.45399 15.694 8.45399C15.7762 8.45399 15.8552 8.45586 15.9207 8.4593L15.9338 8.45999H15.947C17.4727 8.45999 18.7361 8.97298 19.6155 9.82548C20.4936 10.6768 21.02 11.8967 21.02 13.373C21.02 15.0941 20.5858 16.5112 19.9065 17.4831C19.2312 18.4493 18.326 18.966 17.333 18.966C16.2954 18.966 15.5974 18.1499 15.832 17.1706C15.9658 16.622 16.1398 16.0665 16.3146 15.5082C16.3871 15.2766 16.4598 15.0445 16.5298 14.8123C16.7598 14.0497 16.966 13.27 16.966 12.613C16.966 12.0197 16.8025 11.4308 16.4294 10.9803C16.046 10.5174 15.4774 10.246 14.773 10.246C13.0322 10.246 11.846 11.9784 11.846 13.973C11.846 14.6157 11.9554 15.1562 12.0656 15.538C12.1208 15.7292 12.1765 15.8819 12.2195 15.9891C12.2201 15.9905 12.2207 15.9918 12.2212 15.9932L10.6993 22.4584L10.6987 22.4608C10.4798 23.4119 10.4879 24.616 10.5635 25.6062C6.21878 23.5498 3.21399 19.1247 3.21399 14C3.21399 6.99072 8.83402 1.29383 15.8159 1.16899H16.001H16.0031C23.0673 1.19547 28.786 6.93079 28.786 14.002C28.786 21.0889 23.0408 26.835 15.953 26.835Z" stroke="black"/>
<path d="M15.953 26.835C14.8503 26.835 13.7815 26.6955 12.8154 26.4492C13.3591 25.52 13.8104 24.5158 14.1719 23.3944L14.1759 23.382L14.1792 23.3694L14.774 21.1318C14.9883 21.3105 15.2299 21.4683 15.4861 21.6011C16.0924 21.9155 16.8241 22.114 17.576 22.114C21.9659 22.114 25.009 18.1004 25.009 13.321C25.009 8.59669 21.1346 5.12799 16.282 5.12799C13.2856 5.12799 10.9462 6.13304 9.35476 7.72612C7.76691 9.31556 6.95499 11.4594 6.95499 13.681C6.95499 14.7481 7.23442 15.9203 7.737 16.9343C8.23614 17.9413 8.98295 18.8457 9.95757 19.3043C10.1268 19.3878 10.3913 19.4723 10.6637 19.3544C10.9481 19.2313 11.059 18.9692 11.1016 18.7819L11.4709 17.2899C11.5048 17.1712 11.5233 17.0304 11.4949 16.8759C11.4654 16.715 11.392 16.577 11.2976 16.4596L11.2976 16.4596L11.2946 16.4559C10.8299 15.8893 10.421 14.7794 10.421 13.733V13.733V13.733V13.733V13.7329V13.7329V13.7329V13.7329V13.7329V13.7329V13.7329V13.7329V13.7329V13.7328V13.7328V13.7328V13.7328V13.7328V13.7328V13.7328V13.7328V13.7327V13.7327V13.7327V13.7327V13.7327V13.7327V13.7327V13.7327V13.7327V13.7326V13.7326V13.7326V13.7326V13.7326V13.7326V13.7326V13.7326V13.7325V13.7325V13.7325V13.7325V13.7325V13.7325V13.7325V13.7325V13.7325V13.7324V13.7324V13.7324V13.7324V13.7324V13.7324V13.7324V13.7324V13.7323V13.7323V13.7323V13.7323V13.7323V13.7323V13.7323V13.7323V13.7323V13.7322V13.7322V13.7322V13.7322V13.7322V13.7322V13.7322V13.7322V13.7321V13.7321V13.7321V13.7321V13.7321V13.7321V13.7321V13.7321V13.7321V13.732V13.732V13.732V13.732V13.732V13.732V13.732V13.732V13.7319V13.7319V13.7319V13.7319V13.7319V13.7319V13.7319V13.7319V13.7319V13.7318V13.7318V13.7318V13.7318V13.7318V13.7318V13.7318V13.7318V13.7318V13.7317V13.7317V13.7317V13.7317V13.7317V13.7317V13.7317V13.7317V13.7316V13.7316V13.7316V13.7316V13.7316V13.7316V13.7316V13.7316V13.7316V13.7315V13.7315V13.7315V13.7315V13.7315V13.7315V13.7315V13.7315V13.7314V13.7314V13.7314V13.7314V13.7314V13.7314V13.7314V13.7314V13.7314V13.7313V13.7313V13.7313V13.7313V13.7313V13.7313V13.7313V13.7313V13.7312V13.7312V13.7312V13.7312V13.7312V13.7312V13.7312V13.7312V13.7312V13.7311V13.7311V13.7311V13.7311V13.7311V13.7311V13.7311V13.7311V13.731V13.731V13.731V13.731V13.731V13.731V13.731V13.731V13.731V13.7309V13.7309V13.7309V13.7309V13.7309V13.7309V13.7309V13.7309V13.7308V13.7308V13.7308V13.7308V13.7308V13.7308V13.7308V13.7308V13.7308V13.7307V13.7307V13.7307V13.7307V13.7307V13.7307V13.7307V13.7307V13.7306V13.7306V13.7306V13.7306V13.7306V13.7306V13.7306V13.7306V13.7306V13.7305V13.7305V13.7305V13.7305V13.7305V13.7305V13.7305V13.7305V13.7304V13.7304V13.7304V13.7304V13.7304V13.7304V13.7304V13.7304V13.7304V13.7303V13.7303V13.7303V13.7303V13.7303V13.7303V13.7303V13.7303V13.7303V13.7302V13.7302V13.7302V13.7302V13.7302V13.7302V13.7302V13.7302V13.7301V13.7301V13.7301V13.7301V13.7301V13.7301V13.7301V13.7301V13.7301V13.73V13.73V13.73V13.73V13.73V13.73V13.73V13.73V13.7299V13.7299V13.7299V13.7299V13.7299V13.7299V13.7299V13.7299V13.7299V13.7298V13.7298V13.7298V13.7298V13.7298V13.7298V13.7298V13.7298V13.7297V13.7297V13.7297V13.7297V13.7297V13.7297V13.7297V13.7297V13.7297V13.7296V13.7296V13.7296V13.7296V13.7296V13.7296V13.7296V13.7296V13.7295V13.7295V13.7295V13.7295V13.7295V13.7295V13.7295V13.7295V13.7295V13.7294V13.7294V13.7294V13.7294V13.7294V13.7294V13.7294V13.7294V13.7293V13.7293V13.7293V13.7293V13.7293V13.7293V13.7293V13.7293V13.7293V13.7292V13.7292V13.7292V13.7292V13.7292V13.7292V13.7292V13.7292V13.7291V13.7291V13.7291V13.7291V13.7291V13.7291V13.7291V13.7291V13.7291V13.729V13.729V13.729V13.729V13.729V13.729V13.729V13.729V13.7289V13.7289V13.7289V13.7289V13.7289V13.7289V13.7289V13.7289V13.7289V13.7288V13.7288V13.7288V13.7288V13.7288V13.7288V13.7288V13.7288V13.7288V13.7287V13.7287V13.7287V13.7287V13.7287V13.7287V13.7287V13.7287V13.7286V13.7286V13.7286V13.7286V13.7286V13.7286V13.7286V13.7286V13.7286V13.7285V13.7285V13.7285V13.7285V13.7285V13.7285V13.7285V13.7285V13.7284V13.7284V13.7284V13.7284V13.7284V13.7284V13.7284V13.7284V13.7284V13.7283V13.7283V13.7283V13.7283V13.7283V13.7283V13.7283V13.7283V13.7282V13.7282V13.7282V13.7282V13.7282V13.7282V13.7282V13.7282V13.7282V13.7281V13.7281V13.7281V13.7281V13.7281V13.7281V13.7281V13.7281V13.728V13.728V13.728V13.728V13.728V13.728V13.728V13.728V13.728V13.7279V13.7279V13.7279V13.7279V13.7279V13.7279V13.7279V13.7279V13.7278V13.7278V13.7278V13.7278V13.7278V13.7278V13.7278V13.7278V13.7278V13.7277V13.7277V13.7277V13.7277V13.7277V13.7277V13.7277V13.7277V13.7276V13.7276V13.7276V13.7276V13.7276V13.7276V13.7276V13.7276V13.7276V13.7275V13.7275V13.7275V13.7275V13.7275V13.7275V13.7275V13.7275V13.7274V13.7274V13.7274V13.7274V13.7274V13.7274V13.7274V13.7274V13.7274V13.7273V13.7273V13.7273V13.7273V13.7273V13.7273V13.7273V13.7273V13.7273V13.7272V13.7272V13.7272V13.7272V13.7272V13.7272V13.7272V13.7272V13.7271V13.7271V13.7271V13.7271V13.7271V13.7271V13.7271V13.7271V13.7271V13.727V13.727V13.727V13.727V13.727C10.421 10.8151 12.7812 8.45399 15.694 8.45399C15.7762 8.45399 15.8552 8.45586 15.9207 8.4593L15.9338 8.45999H15.947C17.4727 8.45999 18.7361 8.97298 19.6155 9.82548C20.4936 10.6768 21.02 11.8967 21.02 13.373C21.02 15.0941 20.5858 16.5112 19.9065 17.4831C19.2312 18.4493 18.326 18.966 17.333 18.966C16.2954 18.966 15.5974 18.1499 15.832 17.1706C15.9658 16.622 16.1398 16.0665 16.3146 15.5082C16.3871 15.2766 16.4598 15.0445 16.5298 14.8123C16.7598 14.0497 16.966 13.27 16.966 12.613C16.966 12.0197 16.8025 11.4308 16.4294 10.9803C16.046 10.5174 15.4774 10.246 14.773 10.246C13.0322 10.246 11.846 11.9784 11.846 13.973C11.846 14.6157 11.9554 15.1562 12.0656 15.538C12.1208 15.7292 12.1765 15.8819 12.2195 15.9891C12.2201 15.9905 12.2207 15.9918 12.2212 15.9932L10.6993 22.4584L10.6987 22.4608C10.4798 23.4119 10.4879 24.616 10.5635 25.6062C6.21878 23.5498 3.21399 19.1247 3.21399 14C3.21399 6.99072 8.83402 1.29383 15.8159 1.16899H16.001H16.0031C23.0673 1.19547 28.786 6.93079 28.786 14.002C28.786 21.0889 23.0408 26.835 15.953 26.835Z" stroke="black" stroke-opacity="0.2"/>
<path d="M15.953 26.835C14.8503 26.835 13.7815 26.6955 12.8154 26.4492C13.3591 25.52 13.8104 24.5158 14.1719 23.3944L14.1759 23.382L14.1792 23.3694L14.774 21.1318C14.9883 21.3105 15.2299 21.4683 15.4861 21.6011C16.0924 21.9155 16.8241 22.114 17.576 22.114C21.9659 22.114 25.009 18.1004 25.009 13.321C25.009 8.59669 21.1346 5.12799 16.282 5.12799C13.2856 5.12799 10.9462 6.13304 9.35476 7.72612C7.76691 9.31556 6.95499 11.4594 6.95499 13.681C6.95499 14.7481 7.23442 15.9203 7.737 16.9343C8.23614 17.9413 8.98295 18.8457 9.95757 19.3043C10.1268 19.3878 10.3913 19.4723 10.6637 19.3544C10.9481 19.2313 11.059 18.9692 11.1016 18.7819L11.4709 17.2899C11.5048 17.1712 11.5233 17.0304 11.4949 16.8759C11.4654 16.715 11.392 16.577 11.2976 16.4596L11.2976 16.4596L11.2946 16.4559C10.8299 15.8893 10.421 14.7794 10.421 13.733V13.733V13.733V13.733V13.7329V13.7329V13.7329V13.7329V13.7329V13.7329V13.7329V13.7329V13.7329V13.7328V13.7328V13.7328V13.7328V13.7328V13.7328V13.7328V13.7328V13.7327V13.7327V13.7327V13.7327V13.7327V13.7327V13.7327V13.7327V13.7327V13.7326V13.7326V13.7326V13.7326V13.7326V13.7326V13.7326V13.7326V13.7325V13.7325V13.7325V13.7325V13.7325V13.7325V13.7325V13.7325V13.7325V13.7324V13.7324V13.7324V13.7324V13.7324V13.7324V13.7324V13.7324V13.7323V13.7323V13.7323V13.7323V13.7323V13.7323V13.7323V13.7323V13.7323V13.7322V13.7322V13.7322V13.7322V13.7322V13.7322V13.7322V13.7322V13.7321V13.7321V13.7321V13.7321V13.7321V13.7321V13.7321V13.7321V13.7321V13.732V13.732V13.732V13.732V13.732V13.732V13.732V13.732V13.7319V13.7319V13.7319V13.7319V13.7319V13.7319V13.7319V13.7319V13.7319V13.7318V13.7318V13.7318V13.7318V13.7318V13.7318V13.7318V13.7318V13.7318V13.7317V13.7317V13.7317V13.7317V13.7317V13.7317V13.7317V13.7317V13.7316V13.7316V13.7316V13.7316V13.7316V13.7316V13.7316V13.7316V13.7316V13.7315V13.7315V13.7315V13.7315V13.7315V13.7315V13.7315V13.7315V13.7314V13.7314V13.7314V13.7314V13.7314V13.7314V13.7314V13.7314V13.7314V13.7313V13.7313V13.7313V13.7313V13.7313V13.7313V13.7313V13.7313V13.7312V13.7312V13.7312V13.7312V13.7312V13.7312V13.7312V13.7312V13.7312V13.7311V13.7311V13.7311V13.7311V13.7311V13.7311V13.7311V13.7311V13.731V13.731V13.731V13.731V13.731V13.731V13.731V13.731V13.731V13.7309V13.7309V13.7309V13.7309V13.7309V13.7309V13.7309V13.7309V13.7308V13.7308V13.7308V13.7308V13.7308V13.7308V13.7308V13.7308V13.7308V13.7307V13.7307V13.7307V13.7307V13.7307V13.7307V13.7307V13.7307V13.7306V13.7306V13.7306V13.7306V13.7306V13.7306V13.7306V13.7306V13.7306V13.7305V13.7305V13.7305V13.7305V13.7305V13.7305V13.7305V13.7305V13.7304V13.7304V13.7304V13.7304V13.7304V13.7304V13.7304V13.7304V13.7304V13.7303V13.7303V13.7303V13.7303V13.7303V13.7303V13.7303V13.7303V13.7303V13.7302V13.7302V13.7302V13.7302V13.7302V13.7302V13.7302V13.7302V13.7301V13.7301V13.7301V13.7301V13.7301V13.7301V13.7301V13.7301V13.7301V13.73V13.73V13.73V13.73V13.73V13.73V13.73V13.73V13.7299V13.7299V13.7299V13.7299V13.7299V13.7299V13.7299V13.7299V13.7299V13.7298V13.7298V13.7298V13.7298V13.7298V13.7298V13.7298V13.7298V13.7297V13.7297V13.7297V13.7297V13.7297V13.7297V13.7297V13.7297V13.7297V13.7296V13.7296V13.7296V13.7296V13.7296V13.7296V13.7296V13.7296V13.7295V13.7295V13.7295V13.7295V13.7295V13.7295V13.7295V13.7295V13.7295V13.7294V13.7294V13.7294V13.7294V13.7294V13.7294V13.7294V13.7294V13.7293V13.7293V13.7293V13.7293V13.7293V13.7293V13.7293V13.7293V13.7293V13.7292V13.7292V13.7292V13.7292V13.7292V13.7292V13.7292V13.7292V13.7291V13.7291V13.7291V13.7291V13.7291V13.7291V13.7291V13.7291V13.7291V13.729V13.729V13.729V13.729V13.729V13.729V13.729V13.729V13.7289V13.7289V13.7289V13.7289V13.7289V13.7289V13.7289V13.7289V13.7289V13.7288V13.7288V13.7288V13.7288V13.7288V13.7288V13.7288V13.7288V13.7288V13.7287V13.7287V13.7287V13.7287V13.7287V13.7287V13.7287V13.7287V13.7286V13.7286V13.7286V13.7286V13.7286V13.7286V13.7286V13.7286V13.7286V13.7285V13.7285V13.7285V13.7285V13.7285V13.7285V13.7285V13.7285V13.7284V13.7284V13.7284V13.7284V13.7284V13.7284V13.7284V13.7284V13.7284V13.7283V13.7283V13.7283V13.7283V13.7283V13.7283V13.7283V13.7283V13.7282V13.7282V13.7282V13.7282V13.7282V13.7282V13.7282V13.7282V13.7282V13.7281V13.7281V13.7281V13.7281V13.7281V13.7281V13.7281V13.7281V13.728V13.728V13.728V13.728V13.728V13.728V13.728V13.728V13.728V13.7279V13.7279V13.7279V13.7279V13.7279V13.7279V13.7279V13.7279V13.7278V13.7278V13.7278V13.7278V13.7278V13.7278V13.7278V13.7278V13.7278V13.7277V13.7277V13.7277V13.7277V13.7277V13.7277V13.7277V13.7277V13.7276V13.7276V13.7276V13.7276V13.7276V13.7276V13.7276V13.7276V13.7276V13.7275V13.7275V13.7275V13.7275V13.7275V13.7275V13.7275V13.7275V13.7274V13.7274V13.7274V13.7274V13.7274V13.7274V13.7274V13.7274V13.7274V13.7273V13.7273V13.7273V13.7273V13.7273V13.7273V13.7273V13.7273V13.7273V13.7272V13.7272V13.7272V13.7272V13.7272V13.7272V13.7272V13.7272V13.7271V13.7271V13.7271V13.7271V13.7271V13.7271V13.7271V13.7271V13.7271V13.727V13.727V13.727V13.727V13.727C10.421 10.8151 12.7812 8.45399 15.694 8.45399C15.7762 8.45399 15.8552 8.45586 15.9207 8.4593L15.9338 8.45999H15.947C17.4727 8.45999 18.7361 8.97298 19.6155 9.82548C20.4936 10.6768 21.02 11.8967 21.02 13.373C21.02 15.0941 20.5858 16.5112 19.9065 17.4831C19.2312 18.4493 18.326 18.966 17.333 18.966C16.2954 18.966 15.5974 18.1499 15.832 17.1706C15.9658 16.622 16.1398 16.0665 16.3146 15.5082C16.3871 15.2766 16.4598 15.0445 16.5298 14.8123C16.7598 14.0497 16.966 13.27 16.966 12.613C16.966 12.0197 16.8025 11.4308 16.4294 10.9803C16.046 10.5174 15.4774 10.246 14.773 10.246C13.0322 10.246 11.846 11.9784 11.846 13.973C11.846 14.6157 11.9554 15.1562 12.0656 15.538C12.1208 15.7292 12.1765 15.8819 12.2195 15.9891C12.2201 15.9905 12.2207 15.9918 12.2212 15.9932L10.6993 22.4584L10.6987 22.4608C10.4798 23.4119 10.4879 24.616 10.5635 25.6062C6.21878 23.5498 3.21399 19.1247 3.21399 14C3.21399 6.99072 8.83402 1.29383 15.8159 1.16899H16.001H16.0031C23.0673 1.19547 28.786 6.93079 28.786 14.002C28.786 21.0889 23.0408 26.835 15.953 26.835Z" stroke="black" stroke-opacity="0.2"/>
</g>
<defs>
<filter id="filter0_d_10_89" x="-1.28601" y="0.666992" width="34.572" height="34.668" filterUnits="userSpaceOnUse" color-interpolation-filters="sRGB">
<feFlood flood-opacity="0" result="BackgroundImageFix"/>
<feColorMatrix in="SourceAlpha" type="matrix" values="0 0 0 0 0 0 0 0 0 0 0 0 0 0 0 0 0 0 127 0" result="hardAlpha"/>
<feOffset dy="4"/>
<feGaussianBlur stdDeviation="2"/>
<feComposite in2="hardAlpha" operator="out"/>
<feColorMatrix type="matrix" values="0 0 0 0 0 0 0 0 0 0 0 0 0 0 0 0 0 0 0.25 0"/>
<feBlend mode="normal" in2="BackgroundImageFix" result="effect1_dropShadow_10_89"/>
<feBlend mode="normal" in="SourceGraphic" in2="effect1_dropShadow_10_89" result="shape"/>
</filter>
</defs>
</svg>
