<?xml version="1.0" standalone="no"?>
<!DOCTYPE svg PUBLIC "-//W3C//DTD SVG 20010904//EN"
 "http://www.w3.org/TR/2001/REC-SVG-20010904/DTD/svg10.dtd">
<svg version="1.0" xmlns="http://www.w3.org/2000/svg"
 width="900.000000pt" height="512.000000pt" viewBox="0 0 900.000000 512.000000"
 preserveAspectRatio="xMidYMid meet">

<g transform="translate(0.000000,512.000000) scale(0.100000,-0.100000)"
fill="#000000" stroke="none">
<path d="M4320 5113 c-345 -33 -602 -98 -875 -221 -353 -158 -698 -427 -945
-735 -562 -703 -712 -1651 -394 -2504 49 -132 168 -365 252 -493 398 -609
1039 -1019 1767 -1132 187 -29 551 -31 725 -4 581 88 1067 333 1467 737 404
408 648 911 725 1489 21 158 15 529 -11 690 -89 560 -338 1048 -732 1437 -205
202 -393 338 -649 467 -302 153 -610 240 -941 266 -118 9 -313 11 -389 3z
m-434 -1137 c81 -41 165 -113 226 -195 l44 -58 23 18 c68 55 276 85 531 76
191 -7 288 -23 365 -62 l50 -25 24 32 c14 18 59 67 101 108 82 82 168 132 227
134 36 1 37 0 56 -59 29 -87 29 -278 1 -357 l-20 -56 44 -54 c87 -104 126
-228 141 -448 23 -327 -28 -520 -177 -681 -74 -80 -153 -137 -256 -185 -78
-36 -201 -71 -284 -81 -47 -5 -51 -7 -38 -22 24 -26 54 -106 71 -185 12 -59
15 -148 15 -421 l0 -345 -390 0 -390 0 0 190 0 191 -62 -8 c-286 -37 -493 64
-613 299 -72 139 -162 266 -217 306 -49 35 -73 64 -61 76 3 3 38 6 77 6 125 0
204 -51 300 -194 85 -127 156 -181 276 -212 69 -18 192 -15 260 5 34 10 35 12
51 95 13 67 41 142 76 207 2 4 -18 9 -45 13 -99 13 -209 48 -312 98 -91 45
-118 64 -196 143 -76 75 -98 104 -132 175 -72 152 -90 285 -72 520 18 239 52
350 143 460 l44 54 -20 51 c-38 99 -32 281 12 398 14 37 42 35 127 -7z"/>
</g>
</svg>
